HIERARCHY
ROOT Hips
{
	OFFSET -0.001795 -0.223333 0.028219
	CHANNELS 6 Xposition Yposition Zposition Zrotation Yrotation Xrotation 
	JOINT LeftUpLeg
	{
		OFFSET 0.069520 -0.091406 -0.006815
		CHANNELS 3 Zrotation Yrotation Xrotation
		JOINT LeftLeg
		{
			OFFSET 0.034277 -0.375199 -0.004496
			CHANNELS 3 Zrotation Yrotation Xrotation
			JOINT LeftFoot
			{
				OFFSET -0.013596 -0.397961 -0.043693
				CHANNELS 3 Zrotation Yrotation Xrotation
				JOINT LeftToe
				{
					OFFSET 0.026358 -0.055791 0.119288
					CHANNELS 3 Zrotation Yrotation Xrotation
					End Site
					{
						OFFSET 0.000000 0.000000 0.000000
					}
				}
			}
		}
	}
	JOINT RightUpLeg
	{
		OFFSET -0.067670 -0.090522 -0.004320
		CHANNELS 3 Zrotation Yrotation Xrotation
		JOINT RightLeg
		{
			OFFSET -0.038290 -0.382569 -0.008850
			CHANNELS 3 Zrotation Yrotation Xrotation
			JOINT RightFoot
			{
				OFFSET 0.015774 -0.398415 -0.042312
				CHANNELS 3 Zrotation Yrotation Xrotation
				JOINT RightToe
				{
					OFFSET -0.025372 -0.048144 0.123348
					CHANNELS 3 Zrotation Yrotation Xrotation
					End Site
					{
						OFFSET 0.000000 0.000000 0.000000
					}
				}
			}
		}
	}
	JOINT Spine
	{
		OFFSET -0.002533 0.108963 -0.026696
		CHANNELS 3 Zrotation Yrotation Xrotation
		JOINT Spine1
		{
			OFFSET 0.005487 0.135180 0.001092
			CHANNELS 3 Zrotation Yrotation Xrotation
			JOINT Spine2
			{
				OFFSET 0.001457 0.052922 0.025425
				CHANNELS 3 Zrotation Yrotation Xrotation
				JOINT Neck
				{
					OFFSET -0.002778 0.213870 -0.042857
					CHANNELS 3 Zrotation Yrotation Xrotation
					JOINT Head
					{
						OFFSET 0.005152 0.064970 0.051349
						CHANNELS 3 Zrotation Yrotation Xrotation
						End Site
						{
							OFFSET 0.000000 0.000000 0.000000
						}
					}
				}
				JOINT LeftShoulder
				{
					OFFSET 0.078845 0.121749 -0.034090
					CHANNELS 3 Zrotation Yrotation Xrotation
					JOINT LeftArm
					{
						OFFSET 0.090977 0.030469 -0.008868
						CHANNELS 3 Zrotation Yrotation Xrotation
						JOINT LeftForeArm
						{
							OFFSET 0.259612 -0.012772 -0.027456
							CHANNELS 3 Zrotation Yrotation Xrotation
							JOINT LeftHand
							{
								OFFSET 0.249234 0.008986 -0.001171
								CHANNELS 3 Zrotation Yrotation Xrotation
								End Site
								{
									OFFSET 0.000000 0.000000 0.000000
								}
							}
						}
					}
				}
				JOINT RightShoulder
				{
					OFFSET -0.081759 0.118833 -0.038615
					CHANNELS 3 Zrotation Yrotation Xrotation
					JOINT RightArm
					{
						OFFSET -0.096012 0.032551 -0.009143
						CHANNELS 3 Zrotation Yrotation Xrotation
						JOINT RightForeArm
						{
							OFFSET -0.253742 -0.013329 -0.021401
							CHANNELS 3 Zrotation Yrotation Xrotation
							JOINT RightHand
							{
								OFFSET -0.255298 0.007772 -0.005559
								CHANNELS 3 Zrotation Yrotation Xrotation
								End Site
								{
									OFFSET 0.000000 0.000000 0.000000
								}
							}
						}
					}
				}
			}
		}
	}
}
MOTION
Frames: 17
Frame Time: 0.050000
0.201123 0.908773 -0.008967 -2.422290 -19.676949 -0.281124 14.815648 1.887785 -16.416115 -11.432779 5.598925 26.933017 8.935540 18.145935 2.992187 0.000000 0.000000 0.000000 -16.413976 1.005075 -14.121463 8.062732 -0.264614 20.056224 -3.767300 -12.685119 8.125947 0.000000 0.000000 0.000000 2.033973 0.051814 33.359899 -6.176510 1.783228 -26.996445 -5.642658 4.477073 24.789366 15.936800 -4.857602 -41.268207 0.000000 0.000000 0.000000 -23.504901 -19.765916 12.083324 -35.113454 -20.416562 -0.758883 7.258017 -48.754955 -0.554780 0.000000 0.000000 0.000000 36.273867 5.545062 -1.586168 47.686067 13.694499 -0.524312 13.738333 45.694517 7.265541 0.000000 0.000000 0.000000 
0.192758 0.908481 -0.013120 -2.509221 -20.145386 0.044869 15.452450 2.097532 -16.716100 -11.305762 5.561062 26.760009 9.094444 18.320759 3.814445 0.000000 0.000000 0.000000 -15.897160 1.046742 -15.050565 8.479917 -0.291078 20.859969 -3.979004 -12.914470 7.518926 0.000000 0.000000 0.000000 2.195027 0.077345 33.755541 -6.123266 1.763311 -26.989856 -5.772060 4.183095 24.951416 15.757609 -4.894286 -41.081666 0.000000 0.000000 0.000000 -23.269825 -19.964347 12.314303 -35.590314 -21.416070 -0.497046 7.799125 -48.516099 -0.734127 0.000000 0.000000 0.000000 36.254953 5.744356 -1.703714 47.886223 13.606137 -0.482495 13.589108 46.025256 7.201263 0.000000 0.000000 0.000000 
0.183863 0.908746 -0.017561 -2.534297 -20.587086 0.478995 15.884758 2.270874 -17.120776 -11.178028 5.539526 26.678996 9.111156 18.245127 4.489293 0.000000 0.000000 0.000000 -15.366167 1.101665 -15.905662 8.771446 -0.303811 21.355163 -4.343246 -13.531815 7.162566 0.000000 0.000000 0.000000 2.216232 0.136658 34.015573 -5.878271 1.697696 -26.798437 -6.087072 4.035054 24.899802 15.648101 -4.928741 -40.833230 0.000000 0.000000 0.000000 -22.700916 -20.194883 12.423388 -36.072911 -21.837770 -0.344425 7.993249 -48.418116 -0.779613 0.000000 0.000000 0.000000 36.224408 5.854950 -1.801083 47.824534 13.071039 -0.627995 14.155853 46.687055 7.509575 0.000000 0.000000 0.000000 
0.174653 0.909725 -0.021903 -2.470963 -21.014225 0.933675 16.273969 2.399355 -17.190226 -10.893517 5.311271 25.866019 9.262457 18.334696 5.829805 0.000000 0.000000 0.000000 -14.935810 1.169056 -16.891525 9.220108 -0.354072 21.810549 -4.680986 -14.170594 6.992484 0.000000 0.000000 0.000000 2.299606 0.166915 34.121248 -5.835171 1.678405 -26.842900 -6.247001 3.805356 25.135796 15.453579 -5.011040 -40.398492 0.000000 0.000000 0.000000 -22.255109 -20.564640 12.687150 -36.592972 -22.359202 -0.182803 8.677442 -48.237055 -1.028168 0.000000 0.000000 0.000000 36.178572 5.897554 -2.008758 47.923172 12.864467 -0.652228 14.829597 46.671353 7.733604 0.000000 0.000000 0.000000 
0.165210 0.910520 -0.026031 -2.433657 -21.181532 1.156174 16.602612 2.488185 -17.190402 -10.564431 5.107210 25.458422 9.143761 18.037413 6.427947 0.000000 0.000000 0.000000 -14.410360 1.209567 -17.287575 9.455385 -0.382581 22.046416 -5.017377 -14.737016 6.687478 0.000000 0.000000 0.000000 2.370111 0.182249 34.384622 -5.732732 1.649366 -26.672011 -6.478251 3.579119 25.019273 15.123774 -4.972917 -40.054434 0.000000 0.000000 0.000000 -22.112075 -20.397771 12.627795 -36.713490 -22.651210 -0.089012 9.053931 -49.146700 -1.169533 0.000000 0.000000 0.000000 36.056432 5.939435 -2.100068 47.788648 12.308514 -0.819648 15.963616 47.149933 8.264287 0.000000 0.000000 0.000000 
0.155604 0.911631 -0.029886 -2.186642 -20.972831 1.233193 16.721836 2.444133 -16.810985 -10.041034 4.675140 24.431705 9.042364 17.755839 7.464275 0.000000 0.000000 0.000000 -14.070134 1.219358 -17.532553 9.751444 -0.451278 22.346680 -5.377740 -15.292686 6.242234 0.000000 0.000000 0.000000 2.675612 0.090546 34.756209 -5.842520 1.677733 -26.681534 -6.738675 3.346918 25.064836 14.862120 -4.866883 -40.075246 0.000000 0.000000 0.000000 -21.830015 -20.622238 12.707543 -37.235928 -22.959061 0.044170 9.907405 -50.215888 -1.531288 0.000000 0.000000 0.000000 35.673834 5.746993 -2.213725 48.034329 12.352692 -0.821098 16.313197 46.982303 8.370718 0.000000 0.000000 0.000000 
0.145808 0.912244 -0.033738 -1.919724 -20.723314 1.290640 16.887357 2.409847 -16.429080 -9.530730 4.304822 23.644143 8.825409 17.324451 8.118061 0.000000 0.000000 0.000000 -13.718610 1.228712 -17.741506 9.965738 -0.504031 22.665043 -5.782575 -15.937218 5.769509 0.000000 0.000000 0.000000 2.939988 -0.000686 35.030057 -5.795487 1.669782 -26.675563 -7.097899 3.316650 25.022465 14.632308 -4.754838 -40.060693 0.000000 0.000000 0.000000 -21.906428 -20.621944 12.680589 -37.077292 -23.107930 0.085684 10.068280 -51.800185 -1.646491 0.000000 0.000000 0.000000 35.219341 5.883503 -1.963754 48.048813 12.437436 -0.836812 16.857515 46.988978 8.622525 0.000000 0.000000 0.000000 
0.135850 0.912993 -0.037567 -1.669121 -20.308686 1.371601 16.951043 2.342562 -16.094133 -8.860953 3.832714 22.602628 8.575220 16.827069 9.053495 0.000000 0.000000 0.000000 -13.301236 1.235929 -17.943686 10.244329 -0.582311 23.063696 -6.246338 -16.767159 5.492553 0.000000 0.000000 0.000000 3.366366 -0.160266 35.377750 -6.050690 1.736833 -26.961276 -7.218547 3.240650 25.206985 14.387516 -4.568970 -40.403919 0.000000 0.000000 0.000000 -21.942586 -20.564470 12.622105 -37.339367 -23.327509 0.156195 9.995029 -53.188332 -1.611361 0.000000 0.000000 0.000000 34.692477 5.713354 -1.920649 48.140657 12.667827 -0.819594 17.307091 46.874516 8.815569 0.000000 0.000000 0.000000 
0.125769 0.913629 -0.041527 -1.396275 -19.739037 1.394968 17.049426 2.270560 -15.746139 -8.229810 3.392690 21.601915 8.294332 16.324892 9.808238 0.000000 0.000000 0.000000 -12.896950 1.220620 -17.801866 10.351168 -0.653306 22.885923 -6.590086 -17.390160 5.355954 0.000000 0.000000 0.000000 3.797464 -0.362469 35.395081 -6.301298 1.801625 -26.918061 -7.371954 3.068409 25.367910 14.137065 -4.418198 -40.605756 0.000000 0.000000 0.000000 -22.045128 -20.636236 12.663956 -37.219736 -23.442307 0.172112 10.251513 -54.218513 -1.759516 0.000000 0.000000 0.000000 34.117457 6.026223 -1.550596 48.468404 13.309699 -0.626481 17.143333 46.877648 8.771511 0.000000 0.000000 0.000000 
0.115886 0.914721 -0.045473 -1.187055 -19.161637 1.515298 17.130728 2.182710 -15.325931 -7.548319 2.887991 20.022395 8.105862 15.972673 10.834506 0.000000 0.000000 0.000000 -12.240202 1.224294 -17.738802 10.350833 -0.695960 22.760816 -6.930210 -17.990680 5.124027 0.000000 0.000000 0.000000 4.127336 -0.540974 35.305685 -6.511876 1.855273 -26.834916 -7.406925 3.179746 25.218170 14.110365 -4.388655 -40.438610 0.000000 0.000000 0.000000 -22.145634 -20.920794 12.739966 -37.023337 -23.217652 0.114292 10.095501 -54.818344 -1.734373 0.000000 0.000000 0.000000 33.890441 6.019358 -1.320112 48.017965 14.001882 -0.423107 17.240018 46.744817 8.832312 0.000000 0.000000 0.000000 
0.106576 0.915990 -0.049421 -1.027150 -18.622805 1.746759 17.213447 2.121004 -15.119221 -6.967644 2.487313 18.651651 7.725922 15.328976 11.788230 0.000000 0.000000 0.000000 -11.758007 1.223024 -17.588272 10.450573 -0.770289 22.242704 -7.276545 -18.711259 5.361005 0.000000 0.000000 0.000000 4.501719 -0.731802 35.100105 -6.823290 1.933505 -26.905077 -7.314102 3.239746 25.591643 13.647401 -4.099886 -40.869459 0.000000 0.000000 0.000000 -22.434334 -20.984096 12.795277 -36.500635 -23.312905 0.075529 10.017755 -54.953002 -1.728216 0.000000 0.000000 0.000000 32.949607 6.292359 -0.859643 48.503640 15.121956 -0.095609 16.740242 46.543032 8.636395 0.000000 0.000000 0.000000 
0.098415 0.917496 -0.053134 -0.971379 -18.055963 2.031384 17.306509 2.046332 -14.811817 -6.443098 2.105785 16.982559 7.497245 14.968116 12.451364 0.000000 0.000000 0.000000 -11.285592 1.226222 -17.524746 10.576166 -0.847971 21.873628 -7.643393 -19.448423 5.528579 0.000000 0.000000 0.000000 4.722667 -0.882939 34.727743 -6.898047 1.958752 -26.842137 -7.173310 3.696169 25.588735 13.528633 -3.997574 -40.670518 0.000000 0.000000 0.000000 -22.482661 -21.328355 12.815706 -36.307385 -23.101392 0.039949 9.322217 -55.111383 -1.446435 0.000000 0.000000 0.000000 32.358637 6.284636 -0.461366 48.638713 16.010640 0.133504 16.097080 46.812160 8.530950 0.000000 0.000000 0.000000 
0.091658 0.919044 -0.056153 -0.927182 -17.650453 2.223193 17.376944 2.023091 -14.853884 -6.030474 1.881497 16.213806 7.160139 14.436300 13.177499 0.000000 0.000000 0.000000 -10.931112 1.229126 -17.455217 10.583201 -0.888280 21.285257 -7.669633 -19.558001 5.852859 0.000000 0.000000 0.000000 4.976404 -1.021166 34.290616 -6.995963 1.987443 -26.882608 -7.068110 3.881866 25.750820 13.103978 -3.753385 -40.806866 0.000000 0.000000 0.000000 -22.592235 -21.152972 12.661577 -36.256631 -22.909317 -0.018905 8.825703 -55.256884 -1.206890 0.000000 0.000000 0.000000 31.220321 6.454421 -0.069671 49.290422 17.314444 0.580803 15.149132 46.776208 8.184125 0.000000 0.000000 0.000000 
0.086728 0.920490 -0.058116 -0.868172 -17.490732 2.339310 17.544179 2.008013 -14.579159 -5.912278 1.760350 15.328351 7.194737 14.488388 13.990862 0.000000 0.000000 0.000000 -10.538076 1.237395 -17.289614 10.628313 -0.915740 20.800118 -7.785146 -19.746075 5.733563 0.000000 0.000000 0.000000 5.219603 -1.128745 33.631919 -7.324865 2.069049 -26.653664 -6.693963 4.482974 25.723971 12.931128 -3.732877 -40.122481 0.000000 0.000000 0.000000 -22.762160 -21.454238 12.697195 -36.034666 -22.441166 -0.128356 8.874464 -55.045063 -1.310872 0.000000 0.000000 0.000000 30.865480 6.600858 0.341475 49.147487 18.375614 0.912579 14.547255 47.824016 8.234419 0.000000 0.000000 0.000000 
0.083510 0.921917 -0.058676 -0.786140 -17.351017 2.342772 17.323158 1.912500 -14.226099 -5.703438 1.652053 14.816841 6.964765 14.135036 14.221011 0.000000 0.000000 0.000000 -10.488729 1.217679 -16.965223 10.357517 -0.869302 20.377252 -7.625782 -19.432960 5.763852 0.000000 0.000000 0.000000 5.355277 -1.192442 33.027972 -7.279674 2.064190 -26.460237 -6.754499 4.942079 25.680059 13.158274 -3.799919 -39.948120 0.000000 0.000000 0.000000 -22.908170 -21.144380 12.411984 -35.915171 -22.120351 -0.205140 8.196795 -54.904900 -1.002138 0.000000 0.000000 0.000000 30.642500 6.689986 0.626380 49.244284 19.705183 1.397015 14.320646 48.883272 8.438128 0.000000 0.000000 0.000000 
0.081717 0.923012 -0.058181 -0.696832 -17.403815 2.224207 17.249342 1.821874 -13.440814 -5.580406 1.558055 14.027652 6.965322 14.132212 14.538612 0.000000 0.000000 0.000000 -10.370857 1.200345 -16.552648 10.189763 -0.832567 20.054751 -7.503797 -19.103068 5.377005 0.000000 0.000000 0.000000 5.378215 -1.203110 32.271384 -7.458288 2.109592 -26.169797 -6.415093 5.419192 25.514733 13.349700 -4.010202 -39.022774 0.000000 0.000000 0.000000 -23.202108 -21.271450 12.421230 -35.478674 -21.009953 -0.501775 8.122607 -55.231499 -1.051322 0.000000 0.000000 0.000000 30.643833 6.958884 0.978205 49.050054 20.682942 1.745743 13.682623 50.325135 8.505100 0.000000 0.000000 0.000000 
0.080994 0.923874 -0.056927 -0.757641 -17.419638 2.050387 17.288898 1.772328 -12.800040 -5.539772 1.515336 13.600471 7.026649 14.233571 14.521568 0.000000 0.000000 0.000000 -10.306658 1.178465 -16.144007 10.017032 -0.794443 19.949667 -7.408813 -18.867058 5.222764 0.000000 0.000000 0.000000 5.415230 -1.216479 31.820968 -7.385686 2.093228 -26.277380 -6.180191 5.915337 25.546999 13.519711 -4.076909 -38.808140 0.000000 0.000000 0.000000 -23.573779 -20.904992 12.143270 -35.301370 -20.451586 -0.648487 7.884608 -55.456443 -0.981716 0.000000 0.000000 0.000000 30.924138 7.004015 1.184211 48.980359 21.763849 2.128691 13.415150 51.235300 8.652041 0.000000 0.000000 0.000000 
